# xmcd
#
# Track frame offsets:
#	150
#	17564
#	34633
#	49889
#	67008
#	80970
#	94827
#	111572
#	124371
#	137452
#	155222
#
# Disc length: 2360 seconds
#
# Revision: 0
# Processed by: cddbd v1.5.1PL2 Copyright (c) Steve Scherf et al.
# Submitted via: dBpowerAMP V4.0
#
DISCID=a009360b
DTITLE=Saw Wheel - The Next Train
DYEAR=1900
DGENRE=
TTITLE0=Train Wreck
TTITLE1=Ghost Town Story
TTITLE2=The Obvious hit
TTITLE3=County Lines
TTITLE4=Steamboats And Pig Iron
TTITLE5=Revenge Is A Dish Best Served Cold
TTITLE6=Southern Rock Anthem
TTITLE7=Black Sparrow
TTITLE8=Lombardy St.
TTITLE9=Home Before Sunrise
TTITLE10=Unlisted Track
EXTD=
EXTT0=
EXTT1=
EXTT2=
EXTT3=
EXTT4=
EXTT5=
EXTT6=
EXTT7=
EXTT8=
EXTT9=
EXTT10=
PLAYORDER=
